<svg version="1.1" id="Слой_1" xmlns="http://www.w3.org/2000/svg" xmlns:xlink="http://www.w3.org/1999/xlink" x="0px" y="0px" viewBox="0 0 449 394" style="enable-background:new 0 0 449 394;" xml:space="preserve">
	<style type="text/css">
		.st0-vk {
			fill: #FFFFFF;
		}
		.st1-vk {
			fill: #BFC6D0;
		}
		.st2-vk {
			fill: #75A0B3;
		}
		.st3-vk {
			fill: none;
			stroke: #BFC6D0;
		}
	</style>
	<rect id="Прямоугольник_1" y="0" class="st0-vk" width="449" height="394"/>
	<path id="Фигура_1" class="st1-vk" d="M0,18v-1h449v1H0z"/>
	<g id="Прямоугольник_3_копия">
		<path class="st1-vk" d="M418,102v29H99v-29H418 M419,101H98v31h321V101L419,101z"/>
	</g>
	<g id="Прямоугольник_скругл._углы_1">
		<path class="st1-vk" d="M185,5c2.5,0,4.5,1.8,4.5,4s-2,4-4.5,4h-82c-2.5,0-4.5-1.8-4.5-4s2-4,4.5-4H185 M185,4h-82c-3,0-5.5,2.2-5.5,5
		c0,2.8,2.5,5,5.5,5h82c3,0,5.5-2.2,5.5-5C190.5,6.2,188,4,185,4L185,4z"/>
	</g>
	<g id="Прямоугольник_4_копия">
		<path class="st1-vk" d="M411,113v10h-62v-10H411 M412,112h-64v12h64V112L412,112z"/>
	</g>
	<g id="Прямоугольник_4_копия_2">
		<path class="st1-vk" d="M336,113v10h-62v-10H336 M337,112h-64v12h64V112L337,112z"/>
	</g>
	<circle id="Эллипс_1" class="st1-vk" cx="34" cy="32" r="3"/>
	<circle id="Эллипс_1_копия" class="st1-vk" cx="34" cy="43" r="3"/>
	<circle id="Эллипс_1_копия_2" class="st1-vk" cx="34" cy="55" r="3"/>
	<circle id="Эллипс_1_копия_3" class="st1-vk" cx="34" cy="66" r="3"/>
	<circle id="Эллипс_1_копия_4" class="st1-vk" cx="34" cy="77" r="3"/>
	<circle id="Эллипс_1_копия_5" class="st1-vk" cx="34" cy="88" r="3"/>
	<circle id="Эллипс_1_копия_6" class="st1-vk" cx="34" cy="100" r="3"/>
	<circle id="Эллипс_1_копия_7" class="st1-vk" cx="34" cy="111" r="3"/>
	<circle id="Эллипс_1_копия_10" class="st1-vk" cx="113" cy="117" r="7"/>
	<circle id="Эллипс_1_копия_11" class="st1-vk" cx="35" cy="8" r="4.5"/>
	<circle id="Эллипс_1_копия_8" class="st1-vk" cx="34" cy="122" r="3"/>
	<rect id="Прямоугольник_5" x="42" y="31" class="st1-vk" width="33" height="2"/>
	<rect id="Прямоугольник_5_копия" x="42" y="42" class="st1-vk" width="33" height="2"/>
	<rect id="Прямоугольник_5_копия_2" x="42" y="54" class="st1-vk" width="33" height="2"/>
	<rect id="Прямоугольник_5_копия_3" x="42" y="65" class="st1-vk" width="33" height="2"/>
	<rect id="Прямоугольник_5_копия_4" x="42" y="76" class="st1-vk" width="33" height="2"/>
	<rect id="Прямоугольник_5_копия_5" x="42" y="87" class="st1-vk" width="33" height="2"/>
	<rect id="Прямоугольник_5_копия_6" x="42" y="99" class="st1-vk" width="33" height="2"/>
	<rect id="Прямоугольник_5_копия_7" x="42" y="110" class="st1-vk" width="33" height="2"/>
	<rect id="Прямоугольник_5_копия_8" x="42" y="121" class="st1-vk" width="33" height="2"/>
	<rect id="Прямоугольник_5_копия_10" x="127" y="114" class="st1-vk" width="26" height="2"/>
	<rect id="Прямоугольник_5_копия_10_1_" x="127" y="118.7" class="st1-vk" width="26" height="2"/>
	<circle id="Эллипс_1_копия_9" class="st1-vk" cx="34" cy="142" r="3"/>
	<circle id="Эллипс_1_копия_9-2" class="st1-vk" cx="34" cy="153" r="3"/>
	<circle id="Эллипс_1_копия_9-3" class="st1-vk" cx="34" cy="164" r="3"/>
	<rect id="Прямоугольник_5_копия_9" x="42" y="141" class="st1-vk" width="33" height="2"/>
	<rect id="Прямоугольник_5_копия_9-2" x="42" y="152" class="st1-vk" width="33" height="2"/>
	<rect id="Прямоугольник_5_копия_9-3" x="42" y="163" class="st1-vk" width="33" height="2"/>
	<g id="Прямоугольник_6">
		<path class="st1-vk" d="M418,139v53h-91v-53H418 M419,138h-93v55h93V138L419,138z"/>
	</g>
	<g id="Прямоугольник_6_копия_5">
		<path class="st1-vk" d="M319,139v114H99V139H319 M320,138H98v116h222V138L320,138z"/>
	</g>
	<rect id="Прямоугольник_6_копия_6" x="98" y="259" class="st2-vk" width="222" height="128"/>
	<g id="Прямоугольник_6_копия">
		<path class="st1-vk" d="M418,200v17h-91v-17H418 M419,199h-93v19h93V199L419,199z"/>
	</g>
	<g id="Прямоугольник_6_копия_2">
		<path class="st1-vk" d="M418,225v17h-91v-17H418 M419,224h-93v19h93V224L419,224z"/>
	</g>
	<g id="Прямоугольник_6_копия_3">
		<path class="st1-vk" d="M418,250v69h-91v-69H418 M419,249h-93v71h93V249L419,249z"/>
	</g>
	<g id="Прямоугольник_6_копия_4_2_">
		<path class="st1-vk" d="M418,327v76h-91v-76H418 M419,326h-93v78h93V326L419,326z"/>
	</g>
	<path class="st3-vk" d="M98,102"/>
	<g>
		<path class="st1-vk" d="M418,26.8V101H99V26.8H418 M419,25.8H98V102h321V25.8L419,25.8z"/>
	</g>
</svg>
