<svg version="1.1" id="Слой_1" xmlns="http://www.w3.org/2000/svg" xmlns:xlink="http://www.w3.org/1999/xlink" x="0px" y="0px" viewBox="0 0 449 370" style="enable-background:new 0 0 449 370;" xml:space="preserve">
	<style type="text/css">
		.st0-tw {
			fill: #FFFFFF;
		}
		.st1-tw {
			fill: #BFC6D0;
		}
		.st2-tw {
			fill: none;
			stroke: #BFC6D0;
		}
		.st3-tw {
			fill: #75A0B3;
		}
	</style>
	<rect id="Прямоугольник_1" y="0" class="st0-tw" width="449" height="394"/>
	<g id="Слой_2">
		<g>
			<path class="st1-tw" d="M415,114v120.2H177V114H415 M416,113H176v122.2h240V113L416,113z"/>
		</g>
	</g>
	<rect id="Прямоугольник_7" y="0" class="st2-tw" width="449" height="370"/>
	<circle id="Эллипс_2" class="st1-tw" cx="66.5" cy="9.5" r="4.5"/>
	<path id="Фигура_1" class="st1-tw" d="M0,18v-1h449v1H0z"/>
	<path id="Фигура_1_копия" class="st1-tw" d="M176,132v-1h240v1H176z"/>
	<g id="Прямоугольник_8">
		<path class="st1-tw" d="M448,85v21H1V85H448 M449,84H0v23h449V84L449,84z"/>
	</g>
	<g id="Прямоугольник_скругл._углы_2">
		<path class="st1-tw" d="M206.5,91c2.5,0,4.5,2,4.5,4.5s-2,4.5-4.5,4.5h-17c-2.5,0-4.5-2-4.5-4.5s2-4.5,4.5-4.5H206.5 M206.5,90h-17
		c-3,0-5.5,2.5-5.5,5.5s2.5,5.5,5.5,5.5h17c3,0,5.5-2.5,5.5-5.5S209.5,90,206.5,90L206.5,90z"/>
	</g>
	<g id="Прямоугольник_скругл._углы_2_копия">
		<path class="st1-tw" d="M245.5,91c2.5,0,4.5,2,4.5,4.5s-2,4.5-4.5,4.5h-17c-2.5,0-4.5-2-4.5-4.5s2-4.5,4.5-4.5H245.5 M245.5,90h-17
		c-3,0-5.5,2.5-5.5,5.5s2.5,5.5,5.5,5.5h17c3,0,5.5-2.5,5.5-5.5S248.5,90,245.5,90L245.5,90z"/>
	</g>
	<g id="Прямоугольник_скругл._углы_2_копия_2">
		<path class="st1-tw" d="M284.5,91c2.5,0,4.5,2,4.5,4.5s-2,4.5-4.5,4.5h-17c-2.5,0-4.5-2-4.5-4.5s2-4.5,4.5-4.5H284.5 M284.5,90h-17
		c-3,0-5.5,2.5-5.5,5.5s2.5,5.5,5.5,5.5h17c3,0,5.5-2.5,5.5-5.5S287.5,90,284.5,90L284.5,90z"/>
	</g>
	<g id="Прямоугольник_скругл._углы_2_копия_3">
		<path class="st1-tw" d="M323.5,91c2.5,0,4.5,2,4.5,4.5s-2,4.5-4.5,4.5h-17c-2.5,0-4.5-2-4.5-4.5s2-4.5,4.5-4.5H323.5 M323.5,90h-17
		c-3,0-5.5,2.5-5.5,5.5s2.5,5.5,5.5,5.5h17c3,0,5.5-2.5,5.5-5.5S326.5,90,323.5,90L323.5,90z"/>
	</g>
	<g id="Прямоугольник_скругл._углы_3">
		<path class="st1-tw" d="M408.5,89c3.6,0,6.5,2.9,6.5,6.5s-2.9,6.5-6.5,6.5h-29c-3.6,0-6.5-2.9-6.5-6.5s2.9-6.5,6.5-6.5H408.5
		 M408.5,88h-29c-4.1,0-7.5,3.4-7.5,7.5c0,4.1,3.4,7.5,7.5,7.5h29c4.1,0,7.5-3.4,7.5-7.5C416,91.4,412.6,88,408.5,88L408.5,88z"/>
	</g>
	<path id="Прямоугольник_скругл._углы_4" class="st1-tw" d="M186,118h18c2.2,0,4,1.8,4,4l0,0c0,2.2-1.8,4-4,4
	h-18c-2.2,0-4-1.8-4-4l0,0C182,119.8,183.8,118,186,118z"/>
	<g id="Прямоугольник_скругл._углы_4_копия">
		<path class="st1-tw" d="M272,119c1.7,0,3,1.3,3,3s-1.3,3-3,3h-51c-1.7,0-3-1.3-3-3s1.3-3,3-3H272 M272,118h-51c-2.2,0-4,1.8-4,4
		s1.8,4,4,4h51c2.2,0,4-1.8,4-4S274.2,118,272,118L272,118z"/>
	</g>
	<g id="Прямоугольник_скругл._углы_4_копия_2">
		<path class="st1-tw" d="M310,119c1.7,0,3,1.3,3,3s-1.3,3-3,3h-19c-1.7,0-3-1.3-3-3s1.3-3,3-3H310 M310,118h-19c-2.2,0-4,1.8-4,4
		s1.8,4,4,4h19c2.2,0,4-1.8,4-4S312.2,118,310,118L310,118z"/>
	</g>
	<rect id="Прямоугольник_9" x="63" y="149" class="st1-tw" width="104" height="3"/>
	<rect id="Прямоугольник_9_копия_6" x="63" y="136" class="st1-tw" width="30" height="3"/>
	<rect id="Прямоугольник_9_копия_5" x="63" y="122" class="st1-tw" width="24" height="5"/>
	<rect id="Прямоугольник_9_копия" x="63" y="162" class="st1-tw" width="104" height="3"/>
	<rect id="Прямоугольник_9_копия_2" x="63" y="175" class="st1-tw" width="104" height="3"/>
	<rect id="Прямоугольник_9_копия_3" x="63" y="187" class="st1-tw" width="104" height="3"/>
	<rect id="Прямоугольник_9_копия_4" x="63" y="200" class="st1-tw" width="104" height="3"/>
	<g id="Прямоугольник_6_копия_9">
		<path class="st1-tw" d="M166,213v30h-30v-30H166 M167,212h-32v32h32V212L167,212z"/>
	</g>
	<g id="Прямоугольник_6_копия_10">
		<path class="st1-tw" d="M94,213v30H64v-30H94 M95,212H63v32h32V212L95,212z"/>
	</g>
	<g id="Прямоугольник_6_копия_13">
		<path class="st1-tw" d="M166,288v69H64v-69H166 M167,287H63v71h104V287L167,287z"/>
	</g>
	<g id="Прямоугольник_6_копия_11">
		<path class="st1-tw" d="M130,213v30h-30v-30H130 M131,212H99v32h32V212L131,212z"/>
	</g>
	<g id="Прямоугольник_6_копия_12">
		<path class="st1-tw" d="M166,249v30h-30v-30H166 M167,248h-32v32h32V248L167,248z"/>
	</g>
	<g id="Прямоугольник_6_копия_12-2">
		<path class="st1-tw" d="M94,249v30H64v-30H94 M95,248H63v32h32V248L95,248z"/>
	</g>
	<g id="Прямоугольник_6_копия_12-3">
		<path class="st1-tw" d="M130,249v30h-30v-30H130 M131,248H99v32h32V248L131,248z"/>
	</g>
	<g id="Эллипс_3">
		<circle class="st0-tw" cx="102.5" cy="80.5" r="38"/>
		<path class="st1-tw" d="M102.5,43c20.7,0,37.5,16.8,37.5,37.5S123.2,118,102.5,118S65,101.2,65,80.5S81.8,43,102.5,43 M102.5,42
		C81.2,42,64,59.2,64,80.5c0,21.3,17.2,38.5,38.5,38.5S141,101.8,141,80.5C141,59.2,123.8,42,102.5,42L102.5,42z"/>
	</g>
	<rect id="Прямоугольник_6_копия_15" x="176" y="234" class="st3-tw" width="240" height="124"/>
</svg>
