<?xml version="1.0" encoding="utf-8"?>
<!-- Generator: Adobe Illustrator 22.0.0, SVG Export Plug-In . SVG Version: 6.00 Build 0)  -->
<svg version="1.1" id="Слой_1" xmlns="http://www.w3.org/2000/svg" xmlns:xlink="http://www.w3.org/1999/xlink" x="0px" y="0px"
	 viewBox="0 0 450 428" style="enable-background:new 0 0 450 428;" xml:space="preserve">
<style type="text/css">
	.st0{fill:#FFFFFF;}
	.st1{fill:#BFC6D0;}
	.st2{fill:#75A0B3;}
</style>
<rect id="Прямоугольник_7" x="0" y="0" class="st0" width="449" height="427"/>
<path id="Фигура_1" class="st1" d="M0,18v-1h449v1H0z"/>
<path id="Фигура_1_копия_2" class="st1" d="M110,75v-1h330v1H110z"/>
<rect id="Прямоугольник_10" x="32" y="4" class="st1" width="9" height="9"/>
<g id="Прямоугольник_11">
	<path class="st1" d="M223,5v7H46V5H223 M224,4H45v9h179V4L224,4z"/>
</g>
<g id="Прямоугольник_6_копия_16">
	<path class="st1" d="M104,23v71H33V23H104 M105,22H32v73h73V22L105,22z"/>
</g>
<path id="Прямоугольник_скругл._углы_5" class="st1" d="M33.5,119h38c0.8,0,1.5,0.7,1.5,1.5l0,0
	c0,0.8-0.7,1.5-1.5,1.5h-38c-0.8,0-1.5-0.7-1.5-1.5l0,0C32,119.7,32.7,119,33.5,119z"/>
<path id="Прямоугольник_скругл._углы_5_копия" class="st1" d="M33.5,132h38c0.8,0,1.5,0.7,1.5,1.5l0,0
	c0,0.8-0.7,1.5-1.5,1.5h-38c-0.8,0-1.5-0.7-1.5-1.5l0,0C32,132.7,32.7,132,33.5,132z"/>
<path id="Прямоугольник_скругл._углы_5_копия_2" class="st1" d="M33.5,146h38c0.8,0,1.5,0.7,1.5,1.5
	l0,0c0,0.8-0.7,1.5-1.5,1.5h-38c-0.8,0-1.5-0.7-1.5-1.5l0,0C32,146.7,32.7,146,33.5,146z"/>
<path id="Прямоугольник_скругл._углы_5_копия_2-2" class="st1" d="M33.5,159h38c0.8,0,1.5,0.7,1.5,1.5
	l0,0c0,0.8-0.7,1.5-1.5,1.5h-38c-0.8,0-1.5-0.7-1.5-1.5l0,0C32,159.7,32.7,159,33.5,159z"/>
<path id="Прямоугольник_скругл._углы_5_копия_3" class="st1" d="M33.5,173h38c0.8,0,1.5,0.7,1.5,1.5
	l0,0c0,0.8-0.7,1.5-1.5,1.5h-38c-0.8,0-1.5-0.7-1.5-1.5l0,0C32,173.7,32.7,173,33.5,173z"/>
<path id="Прямоугольник_скругл._углы_5_копия_3-2" class="st1" d="M33.5,186h38c0.8,0,1.5,0.7,1.5,1.5
	l0,0c0,0.8-0.7,1.5-1.5,1.5h-38c-0.8,0-1.5-0.7-1.5-1.5l0,0C32,186.7,32.7,186,33.5,186z"/>
<path id="Прямоугольник_скругл._углы_5_копия_4" class="st1" d="M33.5,200h38c0.8,0,1.5,0.7,1.5,1.5
	l0,0c0,0.8-0.7,1.5-1.5,1.5h-38c-0.8,0-1.5-0.7-1.5-1.5l0,0C32,200.7,32.7,200,33.5,200z"/>
<path id="Прямоугольник_скругл._углы_5_копия_4-2" class="st1" d="M33.5,213h38c0.8,0,1.5,0.7,1.5,1.5
	l0,0c0,0.8-0.7,1.5-1.5,1.5h-38c-0.8,0-1.5-0.7-1.5-1.5l0,0C32,213.7,32.7,213,33.5,213z"/>
<rect id="Прямоугольник_12" x="32" y="105" class="st1" width="18" height="4"/>
<g id="Прямоугольник_13_2_">
	<path class="st1" d="M439,18v76H111V18H439 M440,17H110v78h330V17L440,17z"/>
</g>
<g id="Прямоугольник_14">
	<path class="st1" d="M273,80v10H115V80H273 M274,79H114v12h160V79L274,79z"/>
</g>
<g id="Прямоугольник_14_копия">
	<path class="st1" d="M366,80v10h-46V80H366 M367,79h-48v12h48V79L367,79z"/>
</g>
<g id="Прямоугольник_14_копия_2">
	<path class="st1" d="M435,80v10h-63V80H435 M436,79h-65v12h65V79L436,79z"/>
</g>
<path id="Фигура_2" class="st1" d="M139,79h1v12h-1V79z"/>
<path id="Фигура_2_копия" class="st1" d="M197,91V79h1v12"/>
<path id="Фигура_2_копия_2" class="st1" d="M258,91V79h1v12"/>
<g id="Прямоугольник_6_копия_17_2_">
	<path class="st1" d="M310.8,103v330h-200V103H310.8 M311.8,102h-202v332h202V102L311.8,102z"/>
</g>
<rect id="Прямоугольник_15" x="114" y="108" class="st1" width="16" height="4"/>
<rect id="Прямоугольник_6_копия_18" x="114" y="268" class="st2" width="193" height="153"/>
<g id="Прямоугольник_6_копия_19">
	<path class="st1" d="M439,103v74H318v-74H439 M440,102H317v76h123V102L440,102z"/>
</g>
<g id="Прямоугольник_6_копия_23">
	<path class="st1" d="M306.8,121.3l-1.5,140H114.9l1.5-140H306.8 M307.8,120.3H115.3l-1.5,142h192.5L307.8,120.3L307.8,120.3z"/>
</g>
<g id="Прямоугольник_6_копия_20">
	<path class="st1" d="M439,184v74H318v-74H439 M440,183H317v76h123V183L440,183z"/>
</g>
<g id="Прямоугольник_6_копия_21">
	<path class="st1" d="M439,265v74H318v-74H439 M440,264H317v76h123V264L440,264z"/>
</g>
<g id="Прямоугольник_6_копия_22">
	<path class="st1" d="M439,346v74H318v-74H439 M440,345H317v76h123V345L440,345z"/>
</g>
</svg>
