<?xml version="1.0" encoding="utf-8"?>
<!-- Generator: Adobe Illustrator 22.0.0, SVG Export Plug-In . SVG Version: 6.00 Build 0)  -->
<svg version="1.1" id="Слой_1" xmlns="http://www.w3.org/2000/svg" xmlns:xlink="http://www.w3.org/1999/xlink" x="0px" y="0px"
	 viewBox="0 0 92.3 32.2" style="enable-background:new 0 0 92.3 32.2;" xml:space="preserve">
<path id="Прямоугольник_1" d="M6.7,12.5C8,10.7,10,9.6,12.3,9.6l0.5,0l0,0c4.3,0,7.6,3,7.6,7.9v14h-6.8V20
	c0-2.5-1.3-3.9-3.4-3.9c-1.9,0-3.5,1.3-3.5,4.1v11.5h-6.8V0.2h6.8L6.7,12.5z M46.5,31.6h-6.6v-2.3c-1.4,1.8-3.5,2.9-5.8,2.9l-0.3,0
	l0,0c-5.7,0-9.9-5-9.9-11.3s4.2-11.3,10-11.3l0.3,0c2.4,0,4.5,1.1,5.8,2.9l0,0v-2.3h6.6V31.6z M30.8,20.9c0,2.5,2.1,4.6,4.6,4.6
	c2.5,0,4.6-2.1,4.6-4.6s-2.1-4.6-4.6-4.6S30.8,18.4,30.8,20.9z M73.8,20.9c0,6.3-4.2,11.3-10,11.3l-0.3,0c-2.4,0-4.4-1.1-5.8-2.8
	l0,0v2.3h-6.6V0.2H58v12.1c1.3-1.6,3.4-2.6,5.6-2.6l0.3,0l0,0C69.6,9.6,73.8,14.6,73.8,20.9L73.8,20.9z M57.7,20.9
	c0,2.5,2.1,4.6,4.6,4.6s4.6-2.1,4.6-4.6s-2.1-4.6-4.6-4.6S57.7,18.4,57.7,20.9z M92.2,10l-0.6,6.8c-1-0.3-2.2-0.5-3.4-0.6h0
	c-0.2,0-0.3,0-0.5,0c-1.9,0-3.5,1.5-3.5,3.5c0,0.2,0,0.3,0,0.4l0,0v11.6h-6.8V10.2H84v2.5c1.1-1.9,3.1-3.1,5.4-3.1l0.4,0l0,0h0
	C90.7,9.6,91.5,9.8,92.2,10L92.2,10L92.2,10z"/>
</svg>
