<?xml version="1.0" encoding="utf-8"?>
<!-- Generator: Adobe Illustrator 22.0.0, SVG Export Plug-In . SVG Version: 6.00 Build 0)  -->
<svg version="1.1" id="Слой_1" xmlns="http://www.w3.org/2000/svg" xmlns:xlink="http://www.w3.org/1999/xlink" x="0px" y="0px"
	 viewBox="0 0 570 334.2" style="enable-background:new 0 0 570 334.2;" xml:space="preserve">
<style type="text/css">
	.st0{fill:#FFFFFF;}
	.st1{fill:#FFFFFF;stroke:#DADADA;}
	.st2{fill:#DADADA;}
	.st3{fill:#FFFFFF;stroke:#DADADA;stroke-width:3;}
</style>
<rect x="51.8" y="323" class="st0" width="467" height="10.2"/>
<rect id="Прямоугольник_3" x="51.8" y="0" class="st0" width="470" height="11"/>
<path id="Прямоугольник_скругл._углы_1" class="st1" d="M521.8,316V11c0-5.5-4.5-10-10-10h-450
	c-5.5,0-10,4.5-10,10v305h11V12h449v304H521.8z"/>
<g id="Прямоугольник_скругл._углы_1_копия_2_">
	<path class="st2" d="M511.8,4c3.9,0,7,3.1,7,7v302h-464V11c0-3.9,3.1-7,7-7H511.8 M511.8,1h-450c-5.5,0-10,4.5-10,10v305h470V11
		C521.8,5.5,517.3,1,511.8,1L511.8,1z"/>
</g>
<path id="Фигура_1_2_" class="st3" d="M11.4,321c0,0,25.9,8,35,8h480.7c0,0,27-3.6,35-8H11.4z"/>
<g id="Прямоугольник_2">
	<path class="st0" d="M11.3,321.5c-0.8,0-1.5-0.7-1.5-1.5v-5.5h554v5.5c0,0.8-0.7,1.5-1.5,1.5H11.3z"/>
	<path class="st2" d="M562.3,316v4h-551v-4H562.3 M565.3,313H8.3v7c0,1.7,1.3,3,3,3h551c1.7,0,3-1.3,3-3V313L565.3,313z"/>
</g>
</svg>
